<svg id="Layer_1" data-name="Layer 1" xmlns="http://www.w3.org/2000/svg" viewBox="0 0 167.78 176.53"><defs><style>.cls-1{fill:#ffa600;fill-rule:evenodd;}.cls-2{fill:#521c03;}.cls-3{fill:#b3b3b3;}.cls-4{fill:#910001;}</style></defs><path class="cls-1" d="M97,12c-4.24,1.77-6.79-.66,0,0Z" transform="translate(-11.15 -5.25)"/><path class="cls-1" d="M101.1,12.62c-1.3,1.81-3.79-.68,0,0Z" transform="translate(-11.15 -5.25)"/><path class="cls-1" d="M82.17,15c2.2-1.35,5.88-1.22,9.47-1.19C91.27,14.64,85.1,14.75,82.17,15Z" transform="translate(-11.15 -5.25)"/><path class="cls-1" d="M83.35,19.72c-.1-1.28,2.1-.27,3-.59C86.41,20.42,84.21,19.4,83.35,19.72Z" transform="translate(-11.15 -5.25)"/><path class="cls-1" d="M80.39,20.31c-.54,1-1.84,1.31-3.54,1.19C77.58,20.65,78.88,20.37,80.39,20.31Z" transform="translate(-11.15 -5.25)"/><path class="cls-1" d="M88.09,20.91c.82-1.36,4.11-.23,5.91-.6C93.18,21.66,89.89,20.53,88.09,20.91Z" transform="translate(-11.15 -5.25)"/><path class="cls-1" d="M83.35,23.27c-.1-1.28,2.1-.27,3-.59C86.41,24,84.21,23,83.35,23.27Z" transform="translate(-11.15 -5.25)"/><path class="cls-1" d="M81,23.86c.09-.16,1.27-1.09,1.77-.59S80.43,24.9,81,23.86Z" transform="translate(-11.15 -5.25)"/><path class="cls-1" d="M94,24.45c-3.13,1.82-5.68-.73,0,0Z" transform="translate(-11.15 -5.25)"/><path class="cls-1" d="M127.12,25.05c.58-1.82,1.58.67,2.37.59C128.91,27.45,127.91,25,127.12,25.05Z" transform="translate(-11.15 -5.25)"/><path class="cls-1" d="M131.27,25.05a2.82,2.82,0,0,0,1.77.59c-.33,1.22-.92,1.25-1.77.59Z" transform="translate(-11.15 -5.25)"/><path class="cls-1" d="M76.26,35.69c1.55-2.17,5.16-3.16,7.68-3.55,11.46-1.78,25.86,1.58,33.13,7.69-1.39,1.79-4.54-2.07-7.69-3.55-1-.45-2.25-.69-3.55-1.18C100.4,33.06,83.7,32.07,76.26,35.69Z" transform="translate(-11.15 -5.25)"/><path class="cls-1" d="M142.51,52.25c1.82-1,3,3.64,3,6.51C144.19,56.87,144.16,53.75,142.51,52.25Z" transform="translate(-11.15 -5.25)"/><path class="cls-1" d="M42,58.17c.38-1.67.69,1.36.59,1.77C42.27,61.13,41.43,60.42,42,58.17Z" transform="translate(-11.15 -5.25)"/><path class="cls-1" d="M145.46,60.54c.82-1.89.59,2.08.6,3C145.24,65.37,145.47,61.4,145.46,60.54Z" transform="translate(-11.15 -5.25)"/><path class="cls-1" d="M44.91,62.31c.68-1.91.67,1.59.59,2.36C44.82,66.59,44.83,63.09,44.91,62.31Z" transform="translate(-11.15 -5.25)"/><path class="cls-1" d="M53.19,61.72c1.37,3.16.2,8.87.59,13-2,1.47,1.52-6.91-3-4.73.12-.06-1.48,3.4-.59,3.55-1.93-.33,1.72-4-2.37-3.55V65.86c1.33.25,0,3.14,1.19,3.55h4.14Z" transform="translate(-11.15 -5.25)"/><path class="cls-1" d="M118.84,61.72c.26,1,2.11,4.65,2.37,7.1.23,2.14-.34,6.54-.59,2.36C120.47,67.83,117.11,65,118.84,61.72Z" transform="translate(-11.15 -5.25)"/><path class="cls-1" d="M148.42,62.31c.68-1.91.67,1.59.59,2.36C148.33,66.59,148.34,63.09,148.42,62.31Z" transform="translate(-11.15 -5.25)"/><path class="cls-1" d="M41.36,64.08c.22-1.12.75.38.59,1.19C41.72,66.39,41.2,64.89,41.36,64.08Z" transform="translate(-11.15 -5.25)"/><path class="cls-1" d="M140.14,64.67c.81-1.87.58,2.1.59,3C139.92,69.52,140.14,65.54,140.14,64.67Z" transform="translate(-11.15 -5.25)"/><path class="cls-1" d="M144.28,65.86c.39-1.67.68,1.36.59,1.78C144.6,68.82,143.76,68.11,144.28,65.86Z" transform="translate(-11.15 -5.25)"/><path class="cls-1" d="M91,70.59c-.27,2.09-2.65,2.08-2.36,4.73C87.17,73.77,89,70.54,91,70.59Z" transform="translate(-11.15 -5.25)"/><path class="cls-1" d="M39.58,74.14c.23-1.13.76.38.59,1.18C40,76.45,39.42,75,39.58,74.14Z" transform="translate(-11.15 -5.25)"/><path class="cls-1" d="M145.46,74.14c.88.5.86,1.9,1.18,3C144.66,77.71,145.73,75.26,145.46,74.14Z" transform="translate(-11.15 -5.25)"/><path class="cls-1" d="M152,87.15c-1.13-1.53,1.32-1.76-.59-3.55,3.58.44,2-4.3,2.36-7.09C156.15,78.71,154.17,85.72,152,87.15Z" transform="translate(-11.15 -5.25)"/><path class="cls-1" d="M47.27,78.28c.23-1.13.75.38.59,1.18C47.64,80.59,47.11,79.09,47.27,78.28Z" transform="translate(-11.15 -5.25)"/><path class="cls-1" d="M145.46,78.28c1.77,1.23-.79,3.11,0,5.32C143.76,82.43,145.67,79.91,145.46,78.28Z" transform="translate(-11.15 -5.25)"/><path class="cls-1" d="M150.2,79.46c.38-1.66.68,1.37.59,1.78C150.51,82.42,149.67,81.72,150.2,79.46Z" transform="translate(-11.15 -5.25)"/><path class="cls-1" d="M149,79.46c2.19,2.9-1.82,3.55,0,0Z" transform="translate(-11.15 -5.25)"/><path class="cls-1" d="M143.69,80.65c.22-1.13.75.38.59,1.18C144.05,83,143.52,81.45,143.69,80.65Z" transform="translate(-11.15 -5.25)"/><path class="cls-1" d="M43.73,83.6c1.77.89-.44,2.65-1.78,2.37V84.19a2.77,2.77,0,0,0,1.78.6Z" transform="translate(-11.15 -5.25)"/><path class="cls-1" d="M51.41,84.79c.23-1.13.76.37.6,1.18C51.78,87.09,51.25,85.59,51.41,84.79Z" transform="translate(-11.15 -5.25)"/><path class="cls-1" d="M81.58,108.45c1.77-1,4.81.86,7.1,1.18,2.77.38,7.08-.78,8.87.59C92.28,110.44,83.65,110.07,81.58,108.45Z" transform="translate(-11.15 -5.25)"/><path class="cls-1" d="M118.84,12.62c3.42-.34,9.22,1.2,11.24,4.14-1.74,1.42-2-.57-4.73-.59.86,1.51,3.09,1.64,4.73,2.37-2,2.63-5.35-2.18-7.69-3,0,1.47-1,.82-3,0,.25-.88.75.24,1.77,0a2.77,2.77,0,0,1-.59-1.78c-6.73.37-15.09-5-21.3-2.36,1.62-3.14-6.5,1.67-7.1-1.77-2.82,3-13.4,1.13-18.92,2.95-6.56,2.17-8.21,4.89-13.61,7.69.76,2.37,1.23-.16,3,0,.18-.29-3.9,2.88-1.77,5.92,1.17-.6,2.52-1,2.95-2.37,1.37.47-1,2.07-1.18,3,.11.48.6.59.59,1.18,1,.17,1-.55,1.78-.59,1.07-1.65-.19,1.86-1.78,1.18-.46,2.05.66,2.5,1.18,3.55a3,3,0,0,0,1.78-1.77c1.61.54-1.58,1.1-.59,3-.53-.37-1.06-.72-1.19,0-.24-3.56-3.87-2.86-3.54-2.37.11.17.51-1,1.18-2.37-.54-1-2.18-1.63-2.37,0-1.59,1.13.73-1.32.6-2.36-1.62-.44-1.19,1.17-2.37,1.18-1.48,1.14,1.48-1.55,1.77-2.36-2.64.73-.88.3-1.77-1.78-1.38.18-2.55,1.26-3-.59-1.75.51,1.37.88.59,2.37C49.43,30.31,41.78,37.83,39,46.93c-.35,1.16.57,3.25-1.18,1.77-.3,1.85,1.39,2.87-.59,1.78-.79,4.48-.09,11.57-2.37,16,1.47.89,2.1,2.64,1.77,5.32-.85.32-1.44-2.3-1.77-.59C33,70,34.5,68.77,33.67,67a2.85,2.85,0,0,1-1.78.6v3c.81-.18.5-1.48.6-2.37,1.66.85.08,4.3,1.77,4.74.42.1.85-1.32.59-1.78C36.2,73.58,36.5,74,36,77.69c1-.4,2.43,3.12,1.19,4.73-1.34-.33.71-.92-.6-1.77-.69.1-.49,1.07-.59,1.77-1.25-1.91-1.77-.75-2.36-4.73a2.76,2.76,0,0,0,1.77.59c-1.56-1.3-.94-2.54-.59-4.73-1.09.09-.36,2-1.18,2.37-1.41,2.17.81-3.37-.59-1.19-2.72-2.59-2-9.66,0-16-.67-.71-1.69-1.07-1.19-3,1.82,3.11.84-2.08,0-.59.9-3.1,4.55-6.54,3.55-12.42,1.52,0,.85-2.76,2.37-1.18-.1-.69.13-1.06.59-1.19-2.83-.87,1.65-1.17,2.37-2.36.77.24-1.09,2.81-1.19,4.14-.87-.26.24-.76,0-1.78-1.9,1.66-1.28,4-1.77,5.92-.58,0-.46-.73-.59-1.19.2,2.05-1,4-2.37,5.92.58,0,.46-.72.59-1.18,1.77.38-.56,1.26,0,2.36,2-.76,1.7-3.82,2.37-5.91,2-1.75,3-4.45,3.55-7.69,1.74,0,2.06-.92,3-3-1.29-1.24-3.57,1.53-4.15,3-2.11-4.3,4.6-4.86,4.15-9.46a21.81,21.81,0,0,0,5.91-6.51c5.19-.92,7.19-5,9.46-8.88,1.8,1.49,2.38.51,5.33.6,2.21-.74,1.11-3,1.77-4.14,4.7-.64,10.59-3.2,14.79-2.37a21.32,21.32,0,0,0,1.18-2.36c5.77,1.12,10.81-1.57,17.75.59.25.07,1,1.15,1.18,1.18,2.75.53,9.61-.5,8.28,1.77C114,7.17,119.83,9.74,118.84,12.62ZM127.72,15c-2.83-1.64-1.44,1.94,0,0Zm-5.33,0c2.34,2.14,1.74-2.24,0,0ZM92.82,7.89c-.76-.29-3.54-1.5-3.55-.59-.3,1.37-1.26,1.56-2.37,3,2.46.16,2.31-.78,4.14,0C93,5.82,99,11.46,102.28,9.07c-2.39-1.72-10.45-.16-5.91-2.36C91.59,6,94.64,6.8,92.82,7.89ZM75.07,11.44c2.12.15,2.17-1.78,4.14-1.77.23.9.71.08,0-.6C77.27,9.3,76.26,10.46,75.07,11.44Zm7.1-1.18c1.35.16,2.23-.15,2.37-1.19C83.19,8.91,82.31,9.22,82.17,10.26Zm28.39-.59s0,.53,0,.59C107.32,12.56,114.75,8.27,110.56,9.67ZM69.75,12.62a2.44,2.44,0,0,0-2.37.59C66.56,14.25,70.88,13,69.75,12.62Zm-9.46,4.14c.44,2.74-2.27.83-2.37,1.78,1.11.14-.34,1,.59,1.18,1.36-.32,4.7-4,3.55-3ZM50.23,25.05c-1.76,1.42-5,6.09-5.32,8.87,1.24-2.18,3.66-4.26,3.55-4.73-1.42,0,6.11-4,4.73-5.92C53.54,24.9,51,24.42,50.23,25.05ZM34.85,56.39c.42-1.75.71-2.91,0-3.55C34.39,53.25,33.54,56.14,34.85,56.39Zm-1.18,4.74c.06,1.51,1.08,2.07,1.77,2.95-.1-.88.21-2.18-.59-2.36,0,.33-.48.67-.59,0,.68-.23.68-2.87,0-1.18C34.22,60.9,34.17,61.24,33.67,61.13Z" transform="translate(-11.15 -5.25)"/><path class="cls-1" d="M153.74,71.18c-.85,3.4-2-1.37-3.54-.59C149.28,72,149,73.12,149,70h-1.77c-1.33.25,0,3.14-1.18,3.55-1.33-.26-.25-2.92-.6-4.14-.91,3-1.08,6.9-1.18.59-1.58,1.44-.07,11.29-1.18,5.92.28-4.85-1.84-11.27-1.19-16,.31,1.46,1.66,5.42,1.78,8.88,3.84,0,2.05-4.09,3.55.59,1.6-.69,1.47-.29,3.55,0,1.08-1.09,2.34-2,3-3.55.65,1.64,2.85,1.39,2.37-1.19,1.74,1.84.41,4.67,1.18,8.29-2-.42-2.12,2.07-1.18,3,1.33-.24-.09-3.7,1.77-1.78-.14-5.09-.21-7-.59-11.24-.78,1-2.29,1.26-1.77,3.55-1.8-.36-.28-2.48-.59-3.55-.2-.68-1.58-.68-1.78-1.18-.78-2,1-7.55-.59-7.1-1.39-.16.06-2.21.59-2.37a2.66,2.66,0,0,1-1.77-4.14c1.11.07.41,2,1.77,1.78.08-1.06-.72-1.25-.59-2.37a1.61,1.61,0,0,0-1.77,1.18c-.63-.32.26-3.69-1.78-4.14-.67.11-.33.59,0,.59-.26.87-.52,0-1.18,0s-.78,1.77,0,1.78c-.94,1.23-1.37-2.57-3.55-.59-1.43-2.28,1.56-.33,1.78-1.78.11-.74-2.08-2.79,0-.59,1-.23,2.65-2.78,1.18-3.55-.88.26.23.76,0,1.78-1.53-.77-1.37-2.87,1.18-2.37-.77,2.34,2,1.21,1.19,3.55,2.12-2.17-1.87-3.24-1.19-5.91-2.95.37-1.92-.27-3-2.37-1.44.38-.09,2.77.6,3-.53,1.43-3.57-2.66-1.78-3.55-2.44-.73-4.2-4.32-7.1-5.32,1.31-.76,1.5-.56,1.78,1.18.6-.58,1.2-1.17,1.77-1.78-.26-.52-.52-1.05-1.18-1.18-.11.5.23.56.59.59-.79.48-1.43-2-3.55-2.95,0-1.52.44-.73,1.18-.6-1.86-.46-2-1.69-4.73-3.54-.27-.19-2.09.4-3-1.19-.68-1.25,1.67-2.91-.59-3.55.39-1.77,1.27.56,2.37,0-.06,4.73,5.26,5,6.5,8.88.69,2.12,4.12,1.63,4.74,4.73.93-1.41,5.13,3.44,5.91,5.32.35.84-.34,2.16,0,3s.93,1.65,1.78,3.55c.75,1.68,3.14,3,3.54,4.14,1.32,3.66.53,8.33.6,12.42,5.75,5,3.76,21.85,2.36,26.62-.81.28-2.49-1.12-3,1.77.26.88.76-.23,1.78,0,.11-.5-.23-.56-.59-.59,2.29-1-.84,3.56-3,3.55-.05,4.74-3.41,11.13-7.1,14.2,1.92-3,1.49-4.74,3.55-7.1,0-1.39-1.61.21-1.18,1.18-2.92-3.43,4.09-2.34,3.55-7.1-1.27.5-1,2.6-1.77,3.55-1.8-1.11,1.06-6.46,3.54-7.1v1.78c1.63-.19,1-1.84,0-2.37C156.71,82.83,156.47,76.4,153.74,71.18Zm-11.83-42c-.9,1.85.17,3.26,1.78,4.14-.18-1.17.79-1.18,1.18-1.78-2.06-.17,0-1.6-1.18-1.77C143.11,31.73,142.52,29.11,141.91,29.19Zm13.61,31.94c-.8-2.79-2.73,1.8-.59,0C154.92,61.45,155.41,61.8,155.52,61.13Zm1.18,10.05c-.43-.62-.53-4.5-1.18-3-.13.46,0,1.17-.59,1.19,0-.33-.48-.67-.6,0C155.12,70,155.49,71,156.7,71.18Z" transform="translate(-11.15 -5.25)"/><path class="cls-1" d="M132.45,23.86c-.67-.11-.33-.59,0-.59-.66-1.31-2.35-1.6-3-3C132.26,21.69,135.47,22.93,132.45,23.86Z" transform="translate(-11.15 -5.25)"/><path class="cls-1" d="M129.49,21.5c-.88-1.25,3,4.23,0,0Z" transform="translate(-11.15 -5.25)"/><path class="cls-1" d="M134.22,23.27c.65.15.41,1.18,1.19,1.18-.43,1.05-1.08.09-1.78,0,.76,1.53,1.23,1.86,3,1.19a3,3,0,0,0,1.77,1.77c-.18,1.26-1.82-.84-2.36-1.18-.83.21-.05,1,.59,1.18-.93,1.28-2.12-2.18-3.55-2.36C133.25,24.27,134.08,24.11,134.22,23.27Z" transform="translate(-11.15 -5.25)"/><path class="cls-1" d="M146.06,51.66c-1.26-2.89-3.54-4.75-4.15-8.28,1.06-.17,1.22.56.6.59C143.65,46.57,146.11,47.86,146.06,51.66Z" transform="translate(-11.15 -5.25)"/><path class="cls-1" d="M137.18,110.81c.47-2.09,3-2.17,3.55-4.14C139,107.12,136,109.43,137.18,110.81Zm-88.72-3c0-.37.08-.71.59-.59-.77.78-.78,2.2.59,2.36,1.12-1.11.07-3.08-1.18-3.55C48.69,107.1,47.58,107.6,48.46,107.86ZM38.4,88.93c.16-.81-.37-2.31-.59-1.19C37.65,88.55,38.18,90.05,38.4,88.93Zm4.73,8.87c.13-1.7-.15-3-1.18-3.55C42,95.77,42.28,97.07,43.13,97.8Z" transform="translate(-11.15 -5.25)"/><path class="cls-1" d="M79.21,13.8c-1.68,1,1.16-.88,1.78-1.18h4.73c-.07,1.31-2.51.25-3.55.59C80.75,13,80.88,14.29,79.21,13.8Z" transform="translate(-11.15 -5.25)"/><path class="cls-1" d="M104.65,13.21c-.07,1.94-5.18,0,0,0Z" transform="translate(-11.15 -5.25)"/><path class="cls-1" d="M98.14,20.91c0-.58.72-.47,1.18-.6-.24-1.33-3.13,0-3.54-1.18h-7.1c.09-.69,1.08-.5,1.77-.59,3.32.36,6.43-.62,8.28,0,.7-.1.5-1.08.59-1.78,1.31,1,3.81,2.86,5.33,1.78.91.31,0,.62-.59.59,5.47,3.49,10.63,3.62,14.19,8.87,6.33.42,11.69,6.82,16,11.24a38.27,38.27,0,0,1-5.92-4.14c-.9-.86-1.23-2.68-2.36-3.55-1.72-1.31-5.84-2.38-8.87-4.14-1.34-.77-2.74-1.48-4.14-2.36a48.14,48.14,0,0,0-10.06-5.33c-.36.17-2.27,1.47-2.36,0C99.58,20,100,21.58,98.14,20.91Z" transform="translate(-11.15 -5.25)"/><path class="cls-1" d="M120.62,18.54c.7-2.46,2,.45,3.55.59C123.19,20.25,122.58,18.93,120.62,18.54Z" transform="translate(-11.15 -5.25)"/><path class="cls-1" d="M118.25,20.91c-2.65-2,4.21,3.21,0,0Z" transform="translate(-11.15 -5.25)"/><path class="cls-1" d="M121.21,20.91c1.58-1.36,3.88,1.61,5.32,2.36C124.55,25,123.49,20.82,121.21,20.91Z" transform="translate(-11.15 -5.25)"/><path class="cls-1" d="M76.26,21.5c-.79,1.18-2.63,1.31-4.14,1.77C72.9,22.08,74.74,22,76.26,21.5Z" transform="translate(-11.15 -5.25)"/><path class="cls-1" d="M79.21,22.68c.05-.06,0-.57,0-.6C83.4,20.69,76,25,79.21,22.68Z" transform="translate(-11.15 -5.25)"/><path class="cls-1" d="M99.32,22.68c-.9,1.7-7.4-.74-11.23,0C89,21,95.85,23.06,99.32,22.68Z" transform="translate(-11.15 -5.25)"/><path class="cls-1" d="M70.93,23.86Z" transform="translate(-11.15 -5.25)"/><path class="cls-1" d="M108.2,23.86c2.46.05,6,3.56,1.77.59C109.41,24.06,108.65,24.32,108.2,23.86Z" transform="translate(-11.15 -5.25)"/><path class="cls-1" d="M105.24,24.45c-1.55,1.46-3.43-1.7,0,0Z" transform="translate(-11.15 -5.25)"/><path class="cls-1" d="M106.43,25.64c4.37-.37,17.1,8.64,21.29,13s7.91,9.93,12.42,14.79c.1-.69-.13-1.06-.59-1.19,1.07-.68,1.79,6.09,1.77,7.69-2.93-9.68-9.7-15.53-15.38-22.47a1.63,1.63,0,0,0-1.18,1.77.6.6,0,0,1,0-1.18C119.86,32.71,113.54,28.77,106.43,25.64Z" transform="translate(-11.15 -5.25)"/><path class="cls-1" d="M75.66,25.64a5.85,5.85,0,0,1-3.54,1.77A5.9,5.9,0,0,1,75.66,25.64Z" transform="translate(-11.15 -5.25)"/><path class="cls-1" d="M85.13,28.59c-1.32.09.76,1.49,0,3-.89-2.05-1.45-2.68-4.14-1.77,2-2.55,5.09-1.33,7.1-1.78.74-.16,3-1.72,5.91-1.77,15.63-.33,28,12.67,36.08,21.29C118.11,36.71,104.05,22.7,85.13,28.59Z" transform="translate(-11.15 -5.25)"/><path class="cls-1" d="M129.49,27.41c.34-1.72.92.91,1.78.59C130.69,30,130.1,27.34,129.49,27.41Z" transform="translate(-11.15 -5.25)"/><path class="cls-1" d="M70.93,28Z" transform="translate(-11.15 -5.25)"/><path class="cls-1" d="M134.22,29.78c-.92-.21.52-1.05-.59-1.19.16-1.39,2.21.06,2.37.6C137.94,30.64,134.24,28,134.22,29.78Z" transform="translate(-11.15 -5.25)"/><path class="cls-1" d="M80.39,29.78c-3.58,2.33-8.27,3.54-11.23,6.5C70,33.53,76.09,31,80.39,29.78Z" transform="translate(-11.15 -5.25)"/><path class="cls-1" d="M120.62,31c1.69-1,3.32,2.46,0,0Z" transform="translate(-11.15 -5.25)"/><path class="cls-1" d="M134.81,31c-.06-1.44,4.17,2.34,4.74,4.14C138.47,35.56,136.09,32.27,134.81,31Z" transform="translate(-11.15 -5.25)"/><path class="cls-1" d="M137.77,31Z" transform="translate(-11.15 -5.25)"/><path class="cls-1" d="M49.64,31.55c1.84,1-1.21,1.87-1.18,3C47.13,34.08,49.76,32.73,49.64,31.55Z" transform="translate(-11.15 -5.25)"/><path class="cls-1" d="M130.08,54c-1.57-1.54-4.9-4.35-6.5-6.51-.47-.63.14-1.64,0-1.77a2.86,2.86,0,0,1-1.78,0c-1.73-1.14-3.09-3.61-5.32-4.14,2.1-3.09,4.08,2.59,7.1,2.36C124.86,48.21,128,50.65,130.08,54Z" transform="translate(-11.15 -5.25)"/><path class="cls-1" d="M55,33.92c.93-2.79,2.93-.79,0,0Z" transform="translate(-11.15 -5.25)"/><path class="cls-1" d="M67.38,32.73C69,33.27,66,34.06,66.2,35.1,64.12,34.08,67.68,33.91,67.38,32.73Z" transform="translate(-11.15 -5.25)"/><path class="cls-1" d="M50.23,33.33c.1,2.38-1.77,4.45-3,5.32C46.41,37.36,49.85,35.34,50.23,33.33Z" transform="translate(-11.15 -5.25)"/><path class="cls-1" d="M60.29,33.92Z" transform="translate(-11.15 -5.25)"/><path class="cls-1" d="M62.65,33.92c-.16.16-4.72,5.83-7.1,7.69C57.78,38.9,59.73,35.93,62.65,33.92Z" transform="translate(-11.15 -5.25)"/><path class="cls-1" d="M125.35,34.51c.73-1.45,1.72,1.77,3,1.77C127.43,37.88,126.44,34.66,125.35,34.51Z" transform="translate(-11.15 -5.25)"/><path class="cls-1" d="M55.55,35.69c.73-.49-1.57,1.84-2.36,2.37C52.63,38.43,53.7,36.93,55.55,35.69Z" transform="translate(-11.15 -5.25)"/><path class="cls-1" d="M54.37,61.13C53.5,54,60.9,49.91,63.24,44c4.65-2.45,6.88-7.32,12.42-8.87C67.94,42.36,58,47.39,55.55,59.94,54.51,59.1,54.21,59.4,54.37,61.13Z" transform="translate(-11.15 -5.25)"/><path class="cls-1" d="M76.26,106.67C68.51,103,62.4,94.52,60.88,86.56c-.79-.27-1.57-.28-1.19-3,.9,1,2.41,2.85,1.19,4.14,1.67.49,1.53-.83,2.95-.59-1.22-6.52-4.21-14.21-3.54-20.7.33-3.3,2.12-9.85,4.13-11.83.14-.13,1,.87,1.19.59s-.31-1.85,0-2.37c2.09-3.51,7.5-4.25,8.28-8.87-.58,0-.46.73-.59,1.18-.69-.09-.5-1.07-.59-1.77-7.36,5.06-14.4,10.45-15.38,21.89C56.34,53.83,66.1,48,72.71,42.2c.43-1.81-1-1.74-.59-3.55,2.13-.56.82,2.33,1.18,3.55,1.73.16,1.82-1.34,3.55-1.19-.18,1.6-2.49,1.06-3,2.37.21.78,1,.93,1.18,1.77,7.54-4.68,15.14-5.71,27.8-5.32,3.5,2.42,8.5,3.33,12.43,5.32,5,6.9,11.27,15.52,10.64,26,1.82.45.72-2,3-1.18.21-8.29-2.41-13.75-6.51-17.75-.09-.69.13-1,.59-1.18-.33-1.34-.92.72-1.77-.59-5.75-9-18.51-15.61-33.12-12.42-2,.47-3.38-.88-.59-.59,3.61-2.3,10.73-.44,14.78-.6,1,0,1.13-.26,1.19-1.18,1.73,2.22,6.92,4.1,8.87,4.14.86.26-.06.52,0,1.18,4.73,1,6.46,5,10,7.1,1,4.65,5.75,8.75,7.1,14.2.74,3-1.19,9.38,4.73,8.28-.17-2.38-2.32-8.47-1.18-8.28,1.33,2.42.31,7.19,3,8.28-.67.71-1.69,1.07-1.19,3-.2-2.79-3-2.76-4.73-1.18,2.84,4.58-2.83,14.68-3.55,18.92-.09.56.81.48,1.19.59-3,.15-3.77,4.38-5.92,5.92-1.53-1.65,6.18-6.22,1.78-7.1,1.55-.76,1.66.47,3-1.77a7.61,7.61,0,0,0,.59-2.37c.31-.52,1.18,0,1.18,0,1.44-4.28.21-8.68,1.19-13.6-1.13,2-1.6.14-.59-1.19-4.33-.68-3,5.22-3.55,8.29-.81,4.63-1.66,7.77-3.55,8.28,2.42,1-1.67,3-3,5.32.54,1.6,1.43-1.25,1.78-1.78-1.22,3.76-7.39,10.7-12.42,10.65,1.81-1,1.38.5,1.77-2.36,1.23,1.28,1.91-.08,3-.6,6.07-7,11.19-14.36,12.42-24.84-1.68.41,0-1.15-.59-1.77-2-2.25-2.62.49.59-2.37-.92-16-10.28-23.63-21.88-29-1,.59-.65,2.51-1.19,3.54.54,1.24,1.75,1.81,3.55,1.78-1.12,2-3.79-1-4.73.59.58,3.72,2.1,2.69,5.33,5.32-1.37,1.33-3.63-1.46-5.33-1.77-.8.58-.77,2-1.78,2.37.84,2.64,5.52,2.37,8.29,5.91,2.27,2.91,3.58,8.5,5.32,12.42,2.16-.13,2.27-.81,4.14,0-.65-4.94-5.39-8.72-5.33-12.42-1.77,0-3-4.09-5.91-4.73,3.24-2.26,3.49,4.06,5.91,3,.93,2.11-.61,3.24,1.78,4.14.83-.21,0-1-.59-1.18-.64-1.32,2.91.66,1.18,3,2.06-3.06.64,5,3.55,4.73,1.06,6.89-1.15,15.53-4.73,20.12-1.74,2.23-5.15,3.12-4.14,6.5-2.36-.18-9.07,6.35-12.42,4.73,1.71-.45,3.4-.93,4.14-2.36,1.89.88,3.73-1.68,5.92-3.55-.26-1.13-1.28-1.49-1.19-3a4.27,4.27,0,0,1,1.19,1.77c6.8-4.26,9-10.14,10.64-20.1a11,11,0,0,0-4.73.59c.43,9.34-5.06,15.66-10.65,20.7-.5-3.22,8.44-7.23,5.92-10.65-4.56,3.54-7.35,8.83-15.39,8.87v2.37c3,2.59,4.73-.11,8.29-.59-2.14,1.22-3.37,3.33-7.1,3-1.06.86-2.33,4.57,1.18,3.55,1.89.81-2.09.58-3,.59v1.77c11.21,1.16,18.53-6.69,23.66-13.6.48-1.67-.84-1.54-.6-3,4.59-.54,4.86-5.4,5.92-9.46,1.31.07.25,2.5.59,3.55-6.31,11.13-13.42,23.61-29,23.66-1.31.25-.23,2.91-.58,4.14,8.32-.56,14.62-4.6,16.56-5.33,1,2.48-3.28,2.83-5.33,3.55-3.33,1.18-7.33,3-11.23,3-5.49-.13-9.32-4.14-13.61-4.14-.39,2.37,1.57,2.38,3.55,2.37-1.23,2.18-3.43.38-4.73-.6M55.55,83c-.12.38-1.33.64-2.36.59,2.46,7.59,7.34,12.77,10.64,19.52a139.46,139.46,0,0,1-7.68-11.83c-.6,1.8-5.07,2.8-4.14,4.15-1.1,1.44-.89-2.42-3-.6,1.4-2.09,3-.81,4.73-3-.11.48-.59.59-.59,1.19a5.35,5.35,0,0,0,2.36-2.37c-.79-3.34-3-5.28-3.54-8.87.7.67,1.07,1.69,3,1.18-.17-2.39-1-4.11-1.18-6.5,4.4,11.17,8.15,20.6,17.34,29.1,1.2,2,.09,2.14-1,1.36C58.4,93,55.55,83,55.55,83Zm62.7,21.3M75.66,46.93c1.51.86,1.15,3.58,3,4.14,3.16-2.16,8.23-5.55,12.41-4.73a40,40,0,0,0-11.83,4.73c.89,1.8-.19,2.3.6,3.55,3.08-1.06,4.89-3.38,8.87-3.55.51-1.38-2.07-2.55-.59-3,.59.79.56,2.2,1.77,2.37,1.7-2.24,7.13-.75,10.65-1.18-.49-1.67.83-1.54.59-3-3,.31-3.09-2.28-3.55,0,0-.94-1.51-.46-1.18-1.78,2.44-.46,3,.91,5.32.59.07-1.7-.32-3.86.59-4.73C93,40.74,80.17,40.15,75.66,46.93Zm-.59,3.55c-1.19-1.2.24-2-1.18-3.55A31.67,31.67,0,0,0,62.06,79.46c1,4.4,5.78,8.35,3.55,12.42-.1-1.67-1.09-2.46-1.19-4.14-1.11-.13-1.3.67-2.36.6,1.33,7,6.43,10.12,10.06,14.78-.66-.26-3.07-2.61-1.78-1.18.86,1.93,1.32,1.49,3.55,1.18-.23,2.06,3.85,3.21,4.14,1.19-2.67-2-7.38-4.57-9.46-7.69-.84-1.26-3-4.07-1.19-5.33C72.61,102,79,104.64,91,107.86v-4.14c-5.51-.52-6.05-.74-10.05-3-.13.46,0,1.16-.6,1.18-.75-1.48.31-1.85-.58-2.37-2.08,0-5-2.09-7.1-4.73-.29-.35.28-1.41,0-1.77-1-1.26-2.6-2-3.55-3.55a16.28,16.28,0,0,1-2.37-10.06C68,85.07,74.36,95.58,78,97.8c1.68,1,5.15.08,3.55,2.37,4-.1,4.82,3.06,9.46,2.36-.59-4.13-6.11-3.35-8.28-5.91-.13.46,0,1.16-.59,1.18-.3-3.2-5.45-4.2-4.73-6.51,4,4.15,7.46,5.13,12.42,8.28.88-.94.13-3.6-.59-4.73-1.47,1.24-4.12-1.37-5.92-1.77.24.29-2.33-4-5.32-4.14-.65-2.91-1.64-5.45-4.14-6.51-4.14,3.5,5.62,7,2.37,9.46C74.42,87,70,84.74,70.34,77.69c-.69-1.47-3.75-.59-4.14-2.37h4.14c-1-8.7,4.38-15.59,9.47-20.11a2.56,2.56,0,0,1-1.18-2.37c-9.6,2.84-14.37,15.44-12.43,26-5.41-9.14,4.08-23,10.65-27.21C76.23,50.16,75.25,50.66,75.07,50.48Zm4.14,31.35c-.09-.69.11-1.68-.58-1.77-1.35,1.67-2.83,1.91-1.78,4.73A1.64,1.64,0,0,1,78.63,86c2.17,5.2,8.06,7.51,12.41,8.87a4.09,4.09,0,0,0,0-3.55c-5.77-.93-9.19-4.2-11.23-8.87,1.93.64,2.91,5.35,4.73,4.14-3.21-1.72-2.28-5.76-4.73-7.1C79.71,80.35,80,81.64,79.21,81.83Zm5.33,6.51c2.49.46,3.67,2.24,7.1,1.77C90.82,88.29,85.29,86.46,84.54,88.34Zm17.15-8.88C99.47,82,94.76,85.14,90.45,83.6c.33,0,.67-.48,0-.59,0,.34-.1.74-.59.59-8.39-2.4-6.39-13-1.18-16.56,1.95-1.32,5.24-.59,5.91-3.55-4.31-1-8.92,1.57-11.24,4.73-1.57,2.15-1,5.91-3.54,7.1,1.28-8,7.69-13.28,15.37-13C94.9,60.45,97,61,96.37,58.76c-10.3.77-20.75,9.55-16.56,20.7,1-.36,0-2.81,1.18-2.95-.74,3.42,2,.14,2.36,1.77-1.56-.41-2.14,3.14-1.77,4.14,1.13,3.1,7,5.8,10.06,5.92,0-.93-.09-2,1.18-1.78-.14.87-.91,1,.59,1.18,6.11.61,12.4-6.59,11.24-13.6C102.39,74.5,99.86,76.9,101.69,79.46Zm6.51-5.91h-2.37c-1.08,5.26-.62,10.49-4.73,13.6-2.19,1.66-7.66-.27-8.88,3.55,5.33-.29,4.78-.41,8.88-3.55.06.67-.86.92,0,1.19C103.92,84.78,108.56,81.77,108.2,73.55Zm8.28-24.85c-3.35-3.07,4.74,4.37,0,0ZM98.73,55.8c-.31.88-.87,1.5-1.18,2.37,1.31.46,3.21.34,3.55,1.77-1.39,0-1.74-1-3.55-.59-.38,2.11-1.68,3.25-.59,4.14.75-1.78,3.76,1.7,1.18,1.78V63.49c-1.38.88-2.55-.19-3,.59,2.1,3.83,6.18,5.66,7.1,10.65a2.62,2.62,0,0,1,2.37-1.18c0-4.7-2.57-6.9-5.92-8.28,3.72-1,6,4.21,7.1,7.69.06-2.21,2.31,0,2.37-1.19-.29-4-4.45-9.33-5.92-11.83a5.73,5.73,0,0,0,4.15,2.37c.3,2.46,1.74,8.89,4.72,10.65C110.75,63.5,106.82,57.58,98.73,55.8ZM75.07,73c.47-2.24,1.32,2.82,0,2.36-.13-.46,0-1.16-.59-1.18,1.52,2.89.5,4,2.37,6.51.12-.72.65-.37,1.18,0,1.1-3.71-1.34-7.22,0-11.83,5.79-4.46,7.67-10.38,18.34-10.65.59-1.77.65-3.62,0-4.14C85.93,56.61,76,62.86,75.07,73ZM91.64,54c3.53,0,7.21.12,7.09-3.55-7-.82-15.16,1.1-17.74,6.51C84.1,60.85,88,55,91.64,54ZM97,76.51c.59-2.93-2.13-4.57-5.32-6.51H94c-.43-1.81,1-1.74.59-3.55-6.63-1.16-12.75,10-7.09,14.2-.17-.12.26-.92.59-.59,0,0,.07,2.07,1.18,2.36,1.85.48,3-.86,4.14.59,1.58-1.49,3.17-1,4.14-1.77.33-.26,1-2.63,3-3.55-.29-4.84-2-8.28-5.33-10,.25,1.42-1.08,1.28-.59,3,1.52-.31,2.07-.78,3,.59,1.33,6.6-4,12.35-8.28,7.1,1.94,0,2.26,1.68,4.73,1.18,1.38-1.62-.14-2.47,2.37-2.95C96.36,76.84,96.85,77.18,97,76.51Zm-26-1.19H73.3C73.68,66.44,79,64,82.17,58.76c-.14-.84-1-1-1.18-1.77C74.74,60.2,71,65.93,70.93,75.32Zm40.22-1.77h-2.36c.63,2-.19,2,.59,4.14-1.25-1.23-2,3.94-1.18,5.91C111.08,82.15,110.86,77.59,111.15,73.55Zm-39.63,3c-.35,2.51.43,3.91.6,5.91h1.77C74.83,80.75,75.5,75.15,71.52,76.51Z" transform="translate(-11.15 -5.25)"/><path class="cls-1" d="M65,35.69c.11.5-.23.56-.6.59-1.63.38-3,4-4.13,3C62.29,38.49,62.53,36,65,35.69Z" transform="translate(-11.15 -5.25)"/><path class="cls-1" d="M67.38,36.87c1.05-.28-3.73,3.19-4.73,4.74C61.67,39.81,65.92,38.19,67.38,36.87Z" transform="translate(-11.15 -5.25)"/><path class="cls-1" d="M135.41,38.06Z" transform="translate(-11.15 -5.25)"/><path class="cls-1" d="M50.82,38.06c1.61.53-1.35,1.32-1.18,2.36C48.17,40,50.51,38.62,50.82,38.06Z" transform="translate(-11.15 -5.25)"/><path class="cls-1" d="M79.81,39.83c.35-1.16,5.91-2.29,4.73-1.18C82.66,38.74,81.94,40,79.81,39.83Z" transform="translate(-11.15 -5.25)"/><path class="cls-1" d="M140.14,38.65c1.27-1.67,6,4.52,2.37.59C141.3,40.43,141.34,39,140.14,38.65Z" transform="translate(-11.15 -5.25)"/><path class="cls-1" d="M134.22,41c2.24-.82,4.41,4.58,6.51,4.14a2.81,2.81,0,0,0-.59,1.78c2.24-1.25-.64,1.34,2.37,0,.08.79-2,2.2-.6,2.37-.85.75-1.32-1-3.55,0-1.83-.61,1.68-.59,1.78-1.19C139.27,44.64,137,42.59,134.22,41Z" transform="translate(-11.15 -5.25)"/><path class="cls-1" d="M50.82,41c1,1.7-2.46,3.32,0,0Z" transform="translate(-11.15 -5.25)"/><path class="cls-1" d="M59.69,43.38c-.29,3.23-4,4.71,0,0Z" transform="translate(-11.15 -5.25)"/><path class="cls-1" d="M49.05,44.56c.36-.86.71.06,0,0Z" transform="translate(-11.15 -5.25)"/><path class="cls-1" d="M53.19,44.56c-.34,2.33-2.33,5.15-3,5.92-.83,1-1.07,2.33-.59.59C50.17,49.15,51.74,46.81,53.19,44.56Z" transform="translate(-11.15 -5.25)"/><path class="cls-1" d="M94.59,44.56c1.66,1.37-1.77,2.17-3,1.19.13-.75,1.76-.78,1.77,0C93.94,45.49,94.47,45.23,94.59,44.56Z" transform="translate(-11.15 -5.25)"/><path class="cls-1" d="M56.74,47.52c.76.93-4.32,6.91-3.55,5.92C53.86,51,55.66,49.6,56.74,47.52Z" transform="translate(-11.15 -5.25)"/><path class="cls-1" d="M118.25,59.35A51,51,0,0,0,107,48.11C109.38,48,116.81,54.05,118.25,59.35Z" transform="translate(-11.15 -5.25)"/><path class="cls-1" d="M147.83,48.11a6,6,0,0,1,1.78,3.55C148.17,51.32,148.29,49.43,147.83,48.11Z" transform="translate(-11.15 -5.25)"/><path class="cls-1" d="M41.36,50.48c1.37-1.36-.2,1.84,0,3C39.62,52.94,41.71,51.53,41.36,50.48Z" transform="translate(-11.15 -5.25)"/><path class="cls-1" d="M146.64,54.62c-1.73-.27,1.48-6.6,0,0Z" transform="translate(-11.15 -5.25)"/><path class="cls-1" d="M44.91,55.8c-1.46-1.55,1.7-3.43,0,0Z" transform="translate(-11.15 -5.25)"/><path class="cls-1" d="M131.27,57.58c2.36,2.58.31,4.63,0,0Z" transform="translate(-11.15 -5.25)"/><path class="cls-1" d="M136,87.74c-.89-2.77,1.71-4.59,2.36-8.28,1.28-7.18-1.5-15.18-2.36-18.92,0,.15-1.56-3,0-.6,1.49,2.06,1.72,5.38,3.55,7.1C139.62,75.2,139.15,82.81,136,87.74Z" transform="translate(-11.15 -5.25)"/><path class="cls-1" d="M57.33,75.32c-.85-.13-.21-1.76-1.18-1.77,1.29-1.67-.25-6.16,1.18-7.69C57,72.67,57.62,78.58,59.69,83A10.15,10.15,0,0,1,57.33,75.32Z" transform="translate(-11.15 -5.25)"/><path class="cls-1" d="M43.13,70c-.61,2.78,2.06,2.27,1.19,5.32A9.48,9.48,0,0,1,43.13,67c1-.37.09,3.91,3,1.18.42,1.42.28,2.18.59,4.74-2.61.83,0-3.54-1.77-3.55A2.85,2.85,0,0,1,43.13,70Z" transform="translate(-11.15 -5.25)"/><path class="cls-1" d="M92.22,73c.53.36,1.07.71,1.19,0,.5-.11.56.23.59.59v1.18c-.5.11-.55-.23-.59-.59C93.28,75.82,89,79,91.64,76.51,91.21,74.7,92.24,74.35,92.22,73Z" transform="translate(-11.15 -5.25)"/><path class="cls-1" d="M141.91,76.51c2.21,3.68-1,7.78-1.18,12.42C139.59,85.61,142.66,81.4,141.91,76.51Z" transform="translate(-11.15 -5.25)"/><path class="cls-1" d="M134.22,77.1c1.91,2.32-.67,5.22-.59,7.69C132.22,83,134.81,80.07,134.22,77.1Z" transform="translate(-11.15 -5.25)"/><path class="cls-1" d="M48.46,82.42a2.6,2.6,0,0,1,1.18,2.37c-.5.11-.56-.23-.59-.6-.58,0-.46.73-.59,1.19-1.13-2-1.91,1.32-2.37-2.37.58,0,.46.72.59,1.18C47.23,83.57,48.86,84,48.46,82.42Z" transform="translate(-11.15 -5.25)"/><path class="cls-1" d="M148.42,83.6c1.82,0-2.35,5.11-.59,7.1-1.9-1.06-.37,1.47-1.77,3C144.82,90.63,148,86.94,148.42,83.6Z" transform="translate(-11.15 -5.25)"/><path class="cls-1" d="M120,104.31c-.43-1.84,2.91-5,5.33-5.92a3.31,3.31,0,0,0,.59-2.37c3.17-2,4.48-5.77,5.92-9.46,2.32-2.36-.94,4.33-1.78,5.91C127.54,97.27,123.67,100.88,120,104.31Z" transform="translate(-11.15 -5.25)"/><path class="cls-1" d="M48.46,86.56c.87.26-.24.76,0,1.78,1.72-.85.66-.46.59,1.18A1.89,1.89,0,0,1,48.46,86.56Z" transform="translate(-11.15 -5.25)"/><path class="cls-1" d="M50.82,87.74A4.24,4.24,0,0,1,52,89.52C51.75,91,50.73,88.54,50.82,87.74Z" transform="translate(-11.15 -5.25)"/><path class="cls-1" d="M134.81,88.34c2.35.59-.09,2.38-.59,3.54C133,91.54,135.08,89.65,134.81,88.34Z" transform="translate(-11.15 -5.25)"/><path class="cls-1" d="M137.18,90.7c-1.46-1.56,1.71-3.42,0,0Z" transform="translate(-11.15 -5.25)"/><path class="cls-1" d="M49.64,91.29c-1.46-1.55,1.71-3.42,0,0Z" transform="translate(-11.15 -5.25)"/><path class="cls-1" d="M139,92.47c1.08-.66-.55,2.88-.6,3C136.81,98.05,136.8,94.83,139,92.47Z" transform="translate(-11.15 -5.25)"/><path class="cls-1" d="M133,93.07c1.29-1.63-.41,4.09-1.77,1.77C131.8,94.17,132.7,95,133,93.07Z" transform="translate(-11.15 -5.25)"/><path class="cls-1" d="M134.22,94.84c1,1.69-2.45,3.32,0,0Z" transform="translate(-11.15 -5.25)"/><path class="cls-1" d="M131.27,96c1.62,1-11.12,12.3-3.55,4.74,1.07-1.07,1.71-2.59,2.95-3C130.51,96.85,131.24,96.78,131.27,96Z" transform="translate(-11.15 -5.25)"/><path class="cls-1" d="M52,97.21c.11-.67.59-.33.58,0,.51.11.56-.23.6-.59C55.55,97.73,53.05,97.87,52,97.21Z" transform="translate(-11.15 -5.25)"/><path class="cls-1" d="M141.91,97.21c1.15-1.42-.34,2-1.18,3C138.25,102.89,140.06,98.64,141.91,97.21Z" transform="translate(-11.15 -5.25)"/><path class="cls-1" d="M136,97.8c1.11-.76-1.35,1.48-1.78,1.77C133.63,100,134.55,98.8,136,97.8Z" transform="translate(-11.15 -5.25)"/><path class="cls-1" d="M120,97.8c-2.45,5.44-12,8.88-19.51,11.24C107.45,105.73,115.4,103.42,120,97.8Z" transform="translate(-11.15 -5.25)"/><path class="cls-1" d="M53.19,99c.11-.68.59-.34.59,0,.5.1.56-.24.59-.6,2.1.07-1.25,2,.59,1.78C54.37,102,54,98.88,53.19,99Z" transform="translate(-11.15 -5.25)"/><path class="cls-1" d="M50.23,100.76c0-1.48,2.92,5.16,0,0Z" transform="translate(-11.15 -5.25)"/><path class="cls-1" d="M133.63,100.76c-.17,1.2-1.6,1.16-1.77,2.36C130.86,103,132.13,100.31,133.63,100.76Z" transform="translate(-11.15 -5.25)"/><path class="cls-1" d="M137.77,101.94c.67,2.45-8.4,5.88-1.18.59C137,102.24,137.87,102.71,137.77,101.94Z" transform="translate(-11.15 -5.25)"/><path class="cls-1" d="M63.83,104.31c1.71.08,5.08,3.58,7.1,5.32C68.14,108.29,66.3,106,63.83,104.31Z" transform="translate(-11.15 -5.25)"/><path class="cls-1" d="M137.18,106.67c1.11-.76-1.34,1.49-1.77,1.78C134.81,108.85,135.73,107.67,137.18,106.67Z" transform="translate(-11.15 -5.25)"/><path class="cls-1" d="M107.61,116.73" transform="translate(-11.15 -5.25)"/><path class="cls-2" d="M174.36,89.87C169.93,87.59,167,86.2,163,84.16c-2-1-4.33-2.55-5.95-2.85-4.29-.81-9.46.22-14,.23-14.57,0-32,0-47.9,0h0c-15.87,0-33.37,0-48,0-4.57,0-9.74-1-14-.23-1.63.3-3.91,1.83-5.95,2.85-4,2-7,3.43-11.42,5.71-1.78.92-5,2.94-4.52,4,.66,1.58,2.9-.35,4.29.71.25.2.78,4.43.95,5.71.21,1.64.5,4.37.71,6,.59,4.36,1.74,8.14,1.43,11.65-.14,1.54-1.45,3.1-1.67,4.76-.53,4,1.47,9.08,2.38,12.11,2.54,8.48,5.35,18.46,7.61,27.57,1,4,2.17,10.25,1.19,13.06-.57,1.66-3.72,2.11-4,3.34-.68,2.61,3.08,3.06,4.28,2.61,2.57-.95,3.47-6.76,3.57-10.69.14-6.09-1.75-14.81-3.33-22.58-.65-3.16-1.09-7.14-1.91-10.93-.64-3-1.78-10.18-.95-12.11a10,10,0,0,1,2.81-3.55c.77-.68,2.39-1.66,2.9-2a17,17,0,0,1,7.09-2.63c2.23-.44,10.69,1,12.41,1.33,3.77.69,10.13,2.38,12.37-.24,1.32-1.54.28-4,1.43-6.18,1.7-3.3,9-1.88,14.27-1.43,5.68.48,10.81,1,16,1.14h.06c5.21-.18,10.35-.66,16-1.14,5.32-.45,12.56-1.87,14.27,1.43,1.14,2.22.1,4.64,1.42,6.18,2.24,2.62,8.61.93,12.37.24,1.73-.31,10.19-1.77,12.42-1.33a17,17,0,0,1,7.09,2.63c.51.39,2.13,1.37,2.9,2a9.8,9.8,0,0,1,2.8,3.55c.84,1.93-.3,9.11-1,12.11-.81,3.79-1.26,7.77-1.9,10.93-1.58,7.77-3.48,16.49-3.33,22.58.09,3.93,1,9.74,3.57,10.69,1.2.45,5,0,4.28-2.61-.32-1.23-3.47-1.68-4-3.34-1-2.81.2-9.05,1.19-13.06,2.27-9.11,5.08-19.09,7.61-27.57.91-3,2.91-8.09,2.38-12.11-.21-1.66-1.53-3.22-1.66-4.76-.32-3.51.83-7.29,1.42-11.65.22-1.58.5-4.31.72-5.94.17-1.29.7-5.52.95-5.71,1.39-1.07,3.62.86,4.28-.72C179.34,92.81,176.15,90.79,174.36,89.87Z" transform="translate(-11.15 -5.25)"/><path class="cls-2" d="M51.6,171.4h7.52v1.06H52.78v3.66h5.66v1H52.78v4.45H51.6Z" transform="translate(-11.15 -5.25)"/><path class="cls-2" d="M61.24,177.34V171.4h1.18v5.87c0,2.22,1.18,3.44,3.2,3.44s3.15-1.13,3.15-3.37V171.4H70v5.85c0,3-1.75,4.53-4.36,4.53A4,4,0,0,1,61.24,177.34Z" transform="translate(-11.15 -5.25)"/><path class="cls-2" d="M72.74,171.4h4.5a4.14,4.14,0,0,1,3,1,2.71,2.71,0,0,1,.81,2v0a3,3,0,0,1-2.84,3l3.21,4.18H79.94l-3-4h-3v4H72.74Zm4.4,5.21c1.55,0,2.69-.79,2.69-2.1v0c0-1.27-1-2-2.68-2H73.92v4.15Z" transform="translate(-11.15 -5.25)"/><path class="cls-2" d="M83.55,171.4h1.1l6.59,8.19V171.4h1.15v10.22h-.94l-6.75-8.38v8.38H83.55Z" transform="translate(-11.15 -5.25)"/><path class="cls-2" d="M95.46,171.4h1.18v10.22H95.46Z" transform="translate(-11.15 -5.25)"/><path class="cls-2" d="M102.42,172.46H98.89V171.4h8.23v1.06H103.6v9.16h-1.18Z" transform="translate(-11.15 -5.25)"/><path class="cls-2" d="M109.11,177.34V171.4h1.18v5.87c0,2.22,1.18,3.44,3.2,3.44s3.15-1.13,3.15-3.37V171.4h1.18v5.85c0,3-1.75,4.53-4.36,4.53A4.05,4.05,0,0,1,109.11,177.34Z" transform="translate(-11.15 -5.25)"/><path class="cls-2" d="M120.62,171.4h4.49a4.19,4.19,0,0,1,3,1,2.74,2.74,0,0,1,.8,2v0a3,3,0,0,1-2.84,3l3.22,4.18h-1.45l-3-4h-3v4h-1.18Zm4.39,5.21c1.55,0,2.69-.79,2.69-2.1v0c0-1.27-1-2-2.68-2H121.8v4.15Z" transform="translate(-11.15 -5.25)"/><path class="cls-2" d="M131.42,171.4H139v1H132.6v3.49h5.71V177H132.6v3.58h6.45v1.05h-7.63Z" transform="translate(-11.15 -5.25)"/><path class="cls-3" d="M40.17,127.81a3.28,3.28,0,0,0-.9,2.29v37.52h4.26a3.35,3.35,0,0,0,3.26-3.27V126.83H42.54A3.06,3.06,0,0,0,40.17,127.81Z" transform="translate(-11.15 -5.25)"/><path class="cls-3" d="M65.73,126.89H56.86a2.56,2.56,0,0,0-2.88,2.9v34.73q0,3.16,2.88,3.16h8.87A12.65,12.65,0,0,0,74.12,165q2.63-2.61,2.62-7.59V136.9c0-3.34-.87-5.79-2.62-7.37Q71.51,126.89,65.73,126.89Zm3.67,31a4.77,4.77,0,0,1-.51,2.1,2.39,2.39,0,0,1-1.31,1.34,4.77,4.77,0,0,1-2.1.51H61.33V132.72h4.15a5.71,5.71,0,0,1,2.1.25,5.26,5.26,0,0,1,1.31,1.31,5.37,5.37,0,0,1,.51,2.38Z" transform="translate(-11.15 -5.25)"/><path class="cls-3" d="M83.93,127.81a3.28,3.28,0,0,0-.9,2.29v37.52h4.25a3.35,3.35,0,0,0,3.26-3.27V126.83H86.29A3,3,0,0,0,83.93,127.81Z" transform="translate(-11.15 -5.25)"/><path class="cls-3" d="M116.71,126.89c-1.93,0-3,.71-3.21,2.15l-5.44,16.51L102.6,129a3.47,3.47,0,0,0-3.16-2.15h-6l10.36,27.28v10.52q0,3,3.13,3h4.89V154.17l10.07-27.28Z" transform="translate(-11.15 -5.25)"/><path class="cls-3" d="M143.58,153.39l-4.31-23.95a2.85,2.85,0,0,0-3-2.55h-5.75a2.51,2.51,0,0,0-2.76,2.55l-7.17,38.24h4.38q2.22,0,3-3.5l.79-4.28h8.78l.54,3.58s.51,4.19,3.18,4.2h4.94l-1.39-7.78H148a2.93,2.93,0,0,0,2.83-2.58v-3.93Zm-13.68,0L133.18,134l3.32,19.42Z" transform="translate(-11.15 -5.25)"/><polygon class="cls-3" points="133.83 155.71 126.5 155.71 126.34 154.65 133.61 154.65 133.83 155.71"/><path class="cls-4" d="M40.17,124.55a3.28,3.28,0,0,0-.9,2.29v37.52h4.25a3.33,3.33,0,0,0,3.26-3.27V123.57H42.53A3,3,0,0,0,40.17,124.55Z" transform="translate(-11.15 -5.25)"/><path class="cls-4" d="M65.73,123.62H56.86a2.56,2.56,0,0,0-2.88,2.9v34.74q0,3.17,2.88,3.16h8.87a12.59,12.59,0,0,0,8.39-2.65q2.63-2.61,2.62-7.59V133.63q0-5-2.62-7.36Q71.51,123.62,65.73,123.62Zm3.67,31a4.77,4.77,0,0,1-.51,2.1,2.41,2.41,0,0,1-1.31,1.33,4.69,4.69,0,0,1-2.11.52H61.32V129.45h4.15a5.68,5.68,0,0,1,2.11.26A5.26,5.26,0,0,1,68.89,131a5.37,5.37,0,0,1,.51,2.38Z" transform="translate(-11.15 -5.25)"/><path class="cls-4" d="M83.92,124.55a3.27,3.27,0,0,0-.89,2.29v37.52h4.25a3.09,3.09,0,0,0,2.28-1,3.14,3.14,0,0,0,1-2.29V123.57H86.29A3,3,0,0,0,83.92,124.55Z" transform="translate(-11.15 -5.25)"/><path class="cls-4" d="M116.71,123.62c-1.93,0-3,.73-3.22,2.17l-5.43,16.5-5.46-16.5a3.49,3.49,0,0,0-3.16-2.17h-6l10.35,27.28v10.53c0,2,1,3,3.13,3h4.9V150.9l10.07-27.28Z" transform="translate(-11.15 -5.25)"/><path class="cls-4" d="M143.58,150.12l-4.31-23.93a2.86,2.86,0,0,0-3-2.57h-5.75a2.51,2.51,0,0,0-2.76,2.57l-7.17,38.23h4.38q2.22,0,3-3.5l.79-4.28h8.77l.54,3.58s.51,4.19,3.18,4.2h5l-1.41-7.78H148a3,3,0,0,0,2.84-2.58v-3.94Zm-13.68,0,3.28-19.42,3.32,19.42Z" transform="translate(-11.15 -5.25)"/><polygon class="cls-4" points="133.83 152.45 126.49 152.45 126.33 151.39 133.6 151.39 133.83 152.45"/><path class="cls-4" d="M59.4,65l-9.28.42,9.07,2-.28,3.27a1.07,1.07,0,0,1-1.29,1.11l-16.17.8.17-1.93a1.24,1.24,0,0,1,1.19-1.24l12.53-.5L43.19,66.41A1.18,1.18,0,0,1,42.1,65l.07-.73A1.22,1.22,0,0,1,43.35,63L56,62.66,43.61,60c-.71-.06-1-.53-1-1.42L42.78,57l15.81,3.42a1.27,1.27,0,0,1,1.08,1.42Z" transform="translate(-11.15 -5.25)"/><path class="cls-4" d="M57.42,53.69,49.9,49.45a4.39,4.39,0,0,1-1.76-1.67,5.14,5.14,0,0,1-.44-2.07,5.58,5.58,0,0,1,.74-2.39l.14-.25a6.71,6.71,0,0,1,1.71-2,5,5,0,0,1,2-.69,4.47,4.47,0,0,1,2.33.64l7.53,4.25A4.65,4.65,0,0,1,63.88,47a4.05,4.05,0,0,1,.44,2.08,6,6,0,0,1-.81,2.63,5.34,5.34,0,0,1-1.77,2,3.77,3.77,0,0,1-2,.69A4.72,4.72,0,0,1,57.42,53.69Zm-6.2-7.13,8,4.48a2.06,2.06,0,0,0,1.21.22,1.43,1.43,0,0,0,1-.8,1.73,1.73,0,0,0,.28-1.21,1.69,1.69,0,0,0-.87-1.06l-8-4.48a1.89,1.89,0,0,0-1.31-.29,2.15,2.15,0,0,0-.94.95,1.77,1.77,0,0,0-.28,1.21A2,2,0,0,0,51.22,46.56Z" transform="translate(-11.15 -5.25)"/><path class="cls-4" d="M65.32,41.19l-5.53-6.65a4.23,4.23,0,0,1-1-2.17,5,5,0,0,1,.32-2.1,5.36,5.36,0,0,1,1.55-2l.21-.18a6.51,6.51,0,0,1,2.29-1.22,4.9,4.9,0,0,1,2.11.07,4.23,4.23,0,0,1,2,1.43L72.71,35a4.66,4.66,0,0,1,1,2.16,4.18,4.18,0,0,1-.32,2.1,6.19,6.19,0,0,1-1.69,2.17,5.44,5.44,0,0,1-2.36,1.19,3.74,3.74,0,0,1-2.12-.07A4.74,4.74,0,0,1,65.32,41.19Zm-3.26-8.88,5.84,7a2,2,0,0,0,1,.65,1.47,1.47,0,0,0,1.22-.4,1.72,1.72,0,0,0,.69-1,1.66,1.66,0,0,0-.44-1.31l-5.83-7a1.93,1.93,0,0,0-1.13-.73,2.13,2.13,0,0,0-1.21.55,1.79,1.79,0,0,0-.7,1A1.94,1.94,0,0,0,62.06,32.31Z" transform="translate(-11.15 -5.25)"/><path class="cls-4" d="M79.66,36c-.77.26-1.29,0-1.58-.87L73.35,21.21a1.08,1.08,0,0,1,.75-1.55l3.55-1.21a4.8,4.8,0,0,1,3.72-.09,4,4,0,0,1,2,2.59l2.8,8.22a4.35,4.35,0,0,1,0,3.39,5.31,5.31,0,0,1-3,2.2ZM78.34,20.82l-1.66.56,4,11.65,1.67-.56a2,2,0,0,0,.77-.5,1,1,0,0,0,.34-.71,2.12,2.12,0,0,0-.08-.91l-2.9-8.49a2.1,2.1,0,0,0-.53-.88,2.19,2.19,0,0,0-.7-.35A2.49,2.49,0,0,0,78.34,20.82Z" transform="translate(-11.15 -5.25)"/><path class="cls-4" d="M98.65,32.87l-.51-9.27-1.9,9.09L93,32.43a1.06,1.06,0,0,1-1.12-1.27L90.91,15l1.93.15a1.24,1.24,0,0,1,1.24,1.18l.63,12.53,2.4-12.18a1.18,1.18,0,0,1,1.41-1.1l.73.06a1.23,1.23,0,0,1,1.23,1.18l.5,12.63L103.5,17c.06-.72.53-1,1.42-1l1.57.12L103.21,32a1.26,1.26,0,0,1-1.41,1.08Z" transform="translate(-11.15 -5.25)"/><path class="cls-4" d="M109.94,30.76l4.16-7.58a4.39,4.39,0,0,1,1.64-1.78,5.11,5.11,0,0,1,2.07-.46,5.43,5.43,0,0,1,2.4.71l.24.13a6.51,6.51,0,0,1,2,1.68,5,5,0,0,1,.72,2,4.36,4.36,0,0,1-.61,2.34l-4.16,7.58a4.66,4.66,0,0,1-1.63,1.75,4.18,4.18,0,0,1-2.06.47,6,6,0,0,1-2.65-.78,5.37,5.37,0,0,1-2-1.75,3.76,3.76,0,0,1-.72-2A4.77,4.77,0,0,1,109.94,30.76ZM117,24.47l-4.38,8a2.16,2.16,0,0,0-.21,1.22,1.45,1.45,0,0,0,.82,1,1.77,1.77,0,0,0,1.21.28,1.7,1.7,0,0,0,1-.9l4.38-8a2,2,0,0,0,.27-1.32,2.2,2.2,0,0,0-1-.92,1.7,1.7,0,0,0-1.21-.26A1.92,1.92,0,0,0,117,24.47Z" transform="translate(-11.15 -5.25)"/><path class="cls-4" d="M135.18,33.36a9.62,9.62,0,0,1,1.28,1.79,3.68,3.68,0,0,1,.38,1,2.89,2.89,0,0,1-.24,2.13A7.51,7.51,0,0,1,135,40.13l-.09.08a7.12,7.12,0,0,1-2.33,1.4,2.52,2.52,0,0,1-.83.07,2.57,2.57,0,0,1-.76-.14,4.27,4.27,0,0,1-.55-.24l0,0s0,.09.08.25a2.79,2.79,0,0,1-.15,2.07,5.55,5.55,0,0,1-1.36,1.62l-2.18,1.85a4.25,4.25,0,0,0-1.22,1.47h0l-2-2.39a2.08,2.08,0,0,1,.22-.37,11,11,0,0,1,1.65-1.64L127,42.86c.77-.66,1.08-1.29.94-1.89a1.9,1.9,0,0,0-.26-.6,3.91,3.91,0,0,0-.46-.62l-.56-.65h0l-4.3,3.66a1.4,1.4,0,0,1-1.25.28,1.43,1.43,0,0,1-.68-.45l-1.11-1.3h0L131.35,31a1.34,1.34,0,0,1,1.35-.26,1.49,1.49,0,0,1,.64.47Zm-2.65.71-4,3.42.81.95a1.58,1.58,0,0,0,1.73.7,2.55,2.55,0,0,0,.88-.54l1.21-1c.6-.51.87-1,.82-1.43a1.69,1.69,0,0,0-.44-.92Z" transform="translate(-11.15 -5.25)"/><path class="cls-4" d="M130.25,59.44a1.3,1.3,0,0,1,.23-1.42l5-4.55L133.62,53l-3.8,1.28c-.79.26-1.32,0-1.61-.88l-.62-1.85L143.92,46l.62,1.85a1.18,1.18,0,0,1-.84,1.7l-5.83,2,7.7,1.49a1.18,1.18,0,0,1,1,.87l.8,2.37-8.77-1.84-7.56,7.36Z" transform="translate(-11.15 -5.25)"/><path class="cls-4" d="M148.63,69.15q-.07,3.55-2.35,4.43a4.88,4.88,0,0,1-.64.18,5.83,5.83,0,0,1-1.39.1l-1.74,0a0,0,0,0,1,0,0l0-1.15c0-1,.33-1.57.94-1.82a2.87,2.87,0,0,1,.77-.19h.7a1.56,1.56,0,0,0,.64-.16,1.46,1.46,0,0,0,.71-1.4,1.41,1.41,0,0,0-1.57-1.63l-1.35,0a1.86,1.86,0,0,0-1.88.94,4.84,4.84,0,0,0-.22.59c-.07.26-.18.79-.35,1.61a7.41,7.41,0,0,1-.37,1.17,3.22,3.22,0,0,1-1.72,1.74,5.36,5.36,0,0,1-1.94.27h-.14c-1.38,0-2.06-.07-2.06-.09a3.92,3.92,0,0,1-.84-.18,4.91,4.91,0,0,1-.79-.37,3.84,3.84,0,0,1-.61-.53,3,3,0,0,1-.54-.84,6.14,6.14,0,0,1-.51-2.76v-.25a5.53,5.53,0,0,1,1-3.3,3.65,3.65,0,0,1,.43-.48,3.61,3.61,0,0,1,1.43-.7,5.85,5.85,0,0,1,1.43-.13l2,0,0,1a2,2,0,0,1-.37,1.19,2.05,2.05,0,0,1-1.64,1h-.23a1.43,1.43,0,0,0-1.47.75,2.19,2.19,0,0,0-.16.8v.08c0,1,.53,1.55,1.62,1.57l1.26,0c1,0,1.6-.29,1.88-.9s.58-1.7,1-3a5.17,5.17,0,0,1,.59-1.36,1.89,1.89,0,0,1,.47-.47,2.4,2.4,0,0,1,.57-.25,4.82,4.82,0,0,1,.75-.16,19.21,19.21,0,0,1,2.78-.08C147.34,64.31,148.68,65.93,148.63,69.15Z" transform="translate(-11.15 -5.25)"/></svg>